<?xml version="1.0" standalone="no"?>
<!DOCTYPE svg PUBLIC "-//W3C//DTD SVG 20010904//EN"
 "http://www.w3.org/TR/2001/REC-SVG-20010904/DTD/svg10.dtd">
<svg version="1.0" xmlns="http://www.w3.org/2000/svg"
 width="200.000000pt" height="200.000000pt" viewBox="0 0 200.000000 200.000000"
 preserveAspectRatio="xMidYMid meet">
<metadata>
Created by potrace 1.11, written by Peter Selinger 2001-2013
</metadata>
<g transform="translate(0.000000,200.000000) scale(0.100000,-0.100000)"
fill="#000000" stroke="none">
<path d="M50 1000 l0 -460 455 0 455 0 0 460 0 460 -455 0 -455 0 0 -460z
m178 348 l-3 -63 -62 -3 -63 -3 0 66 0 65 65 0 66 0 -3 -62z m162 -3 l0 -65
-65 0 -65 0 0 65 0 65 65 0 65 0 0 -65z m-250 -562 l0 -87 43 41 c40 39 87 70
87 58 0 -3 -16 -19 -35 -36 -19 -17 -35 -35 -35 -40 0 -6 18 -34 40 -64 44
-60 46 -65 27 -65 -8 0 -31 25 -52 55 -20 30 -41 55 -45 55 -16 0 -29 -27 -32
-65 -2 -22 -7 -39 -13 -38 -6 2 -11 59 -13 138 -2 116 0 135 13 135 12 0 15
-16 15 -87z m304 1 c14 -14 18 -14 38 0 31 22 64 20 88 -4 18 -18 20 -31 18
-103 -4 -104 -22 -104 -26 0 -3 79 -12 103 -41 103 -37 -1 -46 -18 -51 -102
-3 -46 -9 -83 -15 -83 -6 0 -11 36 -13 82 -3 89 -15 110 -56 99 -31 -8 -46
-50 -46 -127 0 -33 -4 -59 -10 -59 -6 0 -10 40 -10 100 0 60 4 100 10 100 6 0
10 -5 10 -11 0 -5 10 -3 22 5 29 20 62 20 82 0z m310 4 c25 -11 44 -44 32 -55
-3 -3 -15 6 -27 20 -25 33 -55 34 -86 5 -47 -44 -21 -148 39 -148 25 0 58 27
58 47 0 7 5 13 10 13 18 0 11 -33 -12 -57 -44 -47 -118 -22 -139 46 -27 91 45
166 125 129z"/>
<path d="M1597 863 c-4 -3 -7 -12 -7 -20 0 -15 26 -18 34 -4 7 11 -18 33 -27
24z"/>
<path d="M1650 730 c0 -109 3 -141 13 -137 9 3 12 39 12 137 0 98 -3 134 -12
138 -10 3 -13 -29 -13 -138z"/>
<path d="M1700 730 c0 -118 2 -140 15 -140 13 0 15 22 15 140 0 118 -2 140
-15 140 -13 0 -15 -22 -15 -140z"/>
<path d="M1100 780 c-11 -11 -20 -27 -20 -35 0 -24 36 -53 74 -60 19 -4 41
-14 48 -22 10 -13 8 -19 -11 -34 -31 -25 -47 -24 -75 6 -28 30 -36 31 -36 6 0
-26 37 -51 75 -51 44 0 75 25 75 60 0 33 -7 39 -70 60 -49 16 -62 47 -25 60
26 10 65 -5 65 -25 0 -8 7 -15 15 -15 22 0 18 23 -8 48 -30 28 -80 29 -107 2z"/>
<path d="M1280 780 c-21 -21 -27 -50 -10 -50 6 0 13 7 17 16 8 23 50 36 74 24
28 -15 24 -48 -6 -55 -14 -3 -36 -7 -49 -10 -53 -11 -74 -66 -38 -98 21 -19
64 -22 92 -7 13 7 21 7 25 0 17 -27 25 -2 25 79 0 82 -2 91 -22 105 -31 22
-84 20 -108 -4z m98 -117 c-2 -19 -12 -32 -32 -42 -34 -16 -59 -6 -64 28 -4
24 24 39 71 40 25 1 28 -2 25 -26z"/>
<path d="M1772 784 c-22 -15 -29 -48 -14 -71 5 -7 32 -20 60 -28 40 -12 52
-20 52 -36 0 -31 -43 -46 -75 -25 -14 9 -25 21 -25 26 0 6 -7 10 -15 10 -20 0
-19 -12 6 -44 37 -47 139 -27 139 29 0 32 -22 52 -71 65 -46 13 -61 37 -34 56
26 19 32 18 61 -11 30 -30 34 -31 34 -6 0 25 -36 51 -70 51 -14 0 -36 -7 -48
-16z"/>
<path d="M1421 783 c3 -34 67 -188 78 -188 7 0 25 33 42 78 42 118 42 117 25
117 -11 0 -23 -24 -38 -75 -13 -41 -25 -75 -28 -75 -4 0 -16 34 -28 75 -15 50
-27 75 -37 75 -8 0 -15 -3 -14 -7z"/>
<path d="M1592 693 c2 -66 7 -98 16 -101 9 -3 12 21 12 97 0 84 -3 101 -15
101 -13 0 -15 -15 -13 -97z"/>
</g>
</svg>
